<?xml version="1.0" standalone="no"?>
<!DOCTYPE svg PUBLIC "-//W3C//DTD SVG 20010904//EN"
 "http://www.w3.org/TR/2001/REC-SVG-20010904/DTD/svg10.dtd">
<svg version="1.0" xmlns="http://www.w3.org/2000/svg"
 width="1280.000000pt" height="640.000000pt" viewBox="0 0 1280.000000 640.000000"
 preserveAspectRatio="xMidYMid meet">
<metadata>
Created by potrace 1.15, written by Peter Selinger 2001-2017
</metadata>
<g transform="translate(0.000000,640.000000) scale(0.100000,-0.100000)"
fill="#000000" stroke="none">
<path d="M702 5397 c-8 -9 -3 -49 18 -144 71 -323 178 -580 358 -858 l71 -110
-32 -3 c-112 -10 -364 -47 -487 -72 -460 -94 -685 -240 -616 -403 58 -140 382
-275 845 -353 256 -43 653 -83 846 -85 181 -2 180 -2 270 -104 564 -641 1076
-1120 1502 -1405 265 -177 534 -298 736 -330 167 -27 401 7 531 78 110 60 184
162 212 291 29 137 18 253 -62 651 -30 151 -58 312 -61 357 l-6 82 35 35 c46
46 113 55 238 32 362 -66 888 -379 1199 -711 242 -261 351 -499 351 -769 0
-307 -105 -460 -295 -429 -204 35 -526 294 -783 630 -103 136 -137 168 -191
183 -57 15 -77 4 -71 -40 6 -43 245 -333 391 -476 293 -283 562 -438 785 -451
191 -11 293 67 345 263 32 121 30 334 -5 469 -102 394 -499 838 -1046 1170
-234 143 -544 272 -739 311 -124 24 -264 16 -324 -19 -79 -46 -102 -107 -86
-226 5 -42 34 -200 64 -351 30 -151 58 -324 63 -385 22 -265 -39 -406 -211
-485 -138 -64 -344 -81 -497 -41 -449 117 -1101 653 -1923 1582 l-67 76 218 7
c506 16 932 65 1322 151 l105 23 2465 6 c2748 6 3806 18 5025 56 569 18 1182
48 1430 70 61 5 122 10 138 10 15 0 27 4 27 8 0 8 -291 40 -620 67 -1348 112
-4377 232 -7965 315 l-470 11 -140 34 c-586 143 -1169 202 -1898 193 l-396 -5
-44 66 c-164 248 -281 535 -342 841 -10 47 -24 98 -32 113 -31 60 -152 110
-181 74z m1575 -1377 c586 -26 1036 -90 1196 -172 50 -25 56 -44 24 -75 -49
-49 -271 -97 -603 -128 -208 -19 -865 -40 -974 -31 l-85 7 -56 67 c-113 136
-269 331 -269 336 0 10 521 7 767 -4z m-821 -137 c61 -76 134 -166 163 -201
l53 -63 -98 6 c-651 39 -1076 108 -1170 188 -47 41 -4 78 138 117 138 37 500
80 749 88 l55 2 110 -137z"/>
</g>
</svg>
